<?xml version="1.0" encoding="UTF-8"?>
<!DOCTYPE svg PUBLIC "-//W3C//DTD SVG 1.1//EN" "http://www.w3.org/Graphics/SVG/1.1/DTD/svg11.dtd">
<!-- Creator: CorelDRAW -->
<svg xmlns="http://www.w3.org/2000/svg" xml:space="preserve" width="5906px" height="5906px" version="1.1" style="shape-rendering:geometricPrecision; text-rendering:geometricPrecision; image-rendering:optimizeQuality; fill-rule:evenodd; clip-rule:evenodd"
viewBox="0 0 5906 5906"
 xmlns:xlink="http://www.w3.org/1999/xlink"
 xmlns:xodm="http://www.corel.com/coreldraw/odm/2003">
 <defs>
  <style type="text/css">
   <![CDATA[
    .fil0 {fill:#E31E24;fill-rule:nonzero}
   ]]>
  </style>
 </defs>
 <g id="Слой_x0020_1">
  <metadata id="CorelCorpID_0Corel-Layer"/>
  <path class="fil0" d="M2952.76 0.24c-1630.89,0 -2953,1322.06 -2953,2953 0,1630.95 1322.11,2953 2953,2953 1630.88,0 2953,-1322.05 2953,-2953 0,-1630.94 -1322.14,-2953 -2953,-2953zm741.6 2953c0,741.05 -602.87,1343.92 -1343.91,1343.92 -741.04,0 -1343.91,-602.87 -1343.91,-1343.92 0,-741.04 602.87,-1343.91 1343.91,-1343.91 298.98,0 582.22,96.24 819.11,278.34l-312.03 405.87c-146.6,-112.69 -321.95,-172.26 -507.08,-172.26 -458.74,0 -831.94,373.2 -831.94,831.94 0,458.73 373.2,831.94 831.94,831.94 369.47,0 683.46,-242.1 791.67,-575.97l-791.67 0 0 -511.94 1343.91 0 0 255.99zm1414.89 167.36l-384.96 0 0 385.02 -334.77 0 0 -385.02 -384.8 0 0 -334.74 384.8 0 0 -384.99 334.77 0 0 385.02 384.96 0 0 334.71z"/>
 </g>
</svg>
