<?xml version="1.0" encoding="UTF-8"?>
<!DOCTYPE svg PUBLIC "-//W3C//DTD SVG 1.1//EN" "http://www.w3.org/Graphics/SVG/1.1/DTD/svg11.dtd">
<!-- Creator: CorelDRAW -->
<svg xmlns="http://www.w3.org/2000/svg" xml:space="preserve" width="5906px" height="5906px" version="1.1" style="shape-rendering:geometricPrecision; text-rendering:geometricPrecision; image-rendering:optimizeQuality; fill-rule:evenodd; clip-rule:evenodd"
viewBox="0 0 5906 5906"
 xmlns:xlink="http://www.w3.org/1999/xlink"
 xmlns:xodm="http://www.corel.com/coreldraw/odm/2003">
 <defs>
  <style type="text/css">
   <![CDATA[
    .fil0 {fill:#E31E24;fill-rule:nonzero}
   ]]>
  </style>
 </defs>
 <g id="Слой_x0020_1">
  <metadata id="CorelCorpID_0Corel-Layer"/>
  <path class="fil0" d="M2952.76 0.24c-1631.08,0 -2953,1321.94 -2953,2953 0,1631.07 1321.93,2953 2953,2953 1631.06,0 2953,-1321.93 2953,-2953 0,-1631.06 -1321.93,-2953 -2953,-2953zm-825.92 4188.42l-575.61 0 0 -1842.16 575.61 0 0 1842.16zm-303.38 -2072.87l-4.61 0c-208.78,0 -343.75,-140.73 -343.75,-319.52 0,-182.26 139.58,-319.53 351.82,-319.53 212.25,0 342.6,137.27 347.21,319.53 1.16,177.64 -133.8,319.52 -350.67,319.52zm2605.8 2072.87l-652.89 0 0 -952.8c0,-249.16 -101.51,-419.88 -326.45,-419.88 -171.87,0 -267.61,115.35 -311.45,226.09 -16.15,39.22 -13.84,94.59 -13.84,151.11l0 995.48 -647.12 0c0,0 8.07,-1688.75 0,-1842.16l647.12 0 0 289.53c38.07,-126.89 244.54,-306.84 574.45,-306.84 409.5,0 730.17,265.31 730.17,835.15l0.01 1024.32z"/>
 </g>
</svg>
