<?xml version="1.0" encoding="UTF-8"?>
<!DOCTYPE svg PUBLIC "-//W3C//DTD SVG 1.1//EN" "http://www.w3.org/Graphics/SVG/1.1/DTD/svg11.dtd">
<!-- Creator: CorelDRAW -->
<svg xmlns="http://www.w3.org/2000/svg" xml:space="preserve" width="9449px" height="2953px" version="1.1" style="shape-rendering:geometricPrecision; text-rendering:geometricPrecision; image-rendering:optimizeQuality; fill-rule:evenodd; clip-rule:evenodd"
viewBox="0 0 9449 2952.81"
 xmlns:xlink="http://www.w3.org/1999/xlink"
 xmlns:xodm="http://www.corel.com/coreldraw/odm/2003">
 <defs>
  <style type="text/css">
   <![CDATA[
    .fil0 {fill:#2B2A29;fill-rule:nonzero}
   ]]>
  </style>
 </defs>
 <g id="Слой_x0020_1">
  <metadata id="CorelCorpID_0Corel-Layer"/>
  <path class="fil0" d="M1168.71 576.59l14.12 -73.4c-7.53,-101.61 -76.22,-152.42 -206.06,-152.42 -75.27,0 -140.67,26.82 -196.18,80.45 -55.51,53.63 -83.27,110.08 -83.27,169.36 0,59.28 24.94,111.03 74.8,155.25 49.87,44.22 110.09,83.74 180.65,118.55 70.57,34.82 141.14,72.45 211.71,112.91 70.57,40.46 130.79,92.68 180.65,156.66 49.87,63.98 74.8,136.43 74.8,217.35 0,167.48 -65.86,299.2 -197.58,395.18 -131.73,95.97 -273.81,143.96 -426.23,143.96 -152.43,0 -279.45,-27.76 -381.07,-83.27 -101.62,-55.52 -152.42,-139.73 -152.42,-252.64 0,-60.21 20.69,-114.79 62.09,-163.71 41.4,-48.93 100.68,-73.39 177.83,-73.39 30.11,0 57.4,8.46 81.86,25.4 24.47,16.94 39.52,39.52 45.17,67.75 0,28.22 -16.94,42.33 -50.81,42.33 -63.99,0 -95.97,27.29 -95.97,81.87 1.88,62.09 31.52,118.55 88.91,169.36 57.39,50.81 138.31,76.21 242.75,76.21 104.44,0 193.83,-35.75 268.16,-107.26 74.33,-71.51 111.5,-158.07 111.5,-259.69 0,-67.75 -25.41,-128.91 -76.22,-183.48 -50.81,-54.57 -111.96,-101.15 -183.47,-139.72 -71.51,-38.58 -143.49,-77.62 -215.94,-117.14 -72.45,-39.52 -134.08,-87.51 -184.89,-143.96 -50.8,-56.46 -76.21,-120.44 -76.21,-191.95 0,-126.08 54.1,-226.75 162.31,-302.03 108.2,-75.27 230.99,-112.9 368.36,-112.9 92.21,0 175.95,18.82 251.22,56.45 75.27,37.63 113.85,95.03 115.73,172.19 0,45.16 -11.29,82.79 -33.87,112.9 -22.58,30.11 -53.16,45.17 -91.74,45.17 -38.58,0 -58.8,-14.12 -60.69,-42.34zm499.62 417.76c20.7,-24.47 53.63,-55.99 98.8,-94.56 45.16,-38.58 80.91,-57.87 107.26,-57.87 26.34,0 39.52,37.17 39.52,111.5 0,74.33 -19.76,147.25 -59.28,218.76 -7.53,33.87 -13.18,82.79 -16.94,146.78 54.57,-148.66 109.15,-260.63 163.72,-335.9 54.57,-75.28 120.9,-112.91 199,-112.91 78.09,0 146.31,35.28 204.64,105.85 58.34,70.57 87.51,181.59 87.51,333.08 0,151.48 -42.81,285.56 -128.43,402.23 -85.63,116.67 -198.06,175.01 -337.32,175.01 -71.5,0 -143.96,-26.34 -217.35,-79.03 0,359.42 -20.69,633.22 -62.09,821.4 -3.77,16.94 -28.7,45.63 -74.8,86.09 -46.11,40.46 -79.98,60.69 -101.62,60.69 -21.65,0 -37.17,-15.05 -46.58,-45.16 -9.41,-30.11 -14.11,-58.33 -14.11,-84.68 0,-193.83 39.52,-443.17 118.55,-748.02 13.17,-176.89 22.11,-370.71 26.82,-581.48 4.7,-210.76 8.93,-318.02 12.7,-321.78zm375.42 790.35c54.57,0 111.03,-38.1 169.36,-114.31 58.34,-76.22 87.51,-170.31 87.51,-282.28 0,-111.96 -15.53,-201.35 -46.58,-268.15 -31.05,-66.81 -72.92,-100.21 -125.61,-100.21 -90.33,0 -192.88,187.24 -307.68,561.72 -3.76,52.69 -5.64,94.09 -5.64,124.2 52.69,52.69 128.91,79.03 228.64,79.03zm1436.75 -525.02c75.28,-24.46 127.5,-45.63 156.66,-63.51 29.17,-17.88 51.28,-31.52 66.34,-40.93l33.87 -19.76c9.41,-5.64 16.94,-8.47 22.58,-8.47 15.06,0 22.59,8.47 22.59,25.41 0,16.94 -29.17,46.57 -87.51,88.91 -58.33,42.35 -130.78,80.45 -217.35,114.32 -13.17,158.07 -63.04,286.04 -149.6,383.89 -86.56,97.85 -209.82,146.78 -369.78,146.78 -116.67,0 -206.05,-46.57 -268.15,-139.72 -62.1,-93.15 -93.15,-202.3 -93.15,-327.44 0,-125.13 37.17,-243.22 111.49,-354.25 74.34,-111.02 169.84,-166.54 286.51,-166.54 52.69,-37.63 115.26,-56.45 187.71,-56.45 72.45,0 139.72,38.58 201.82,115.73 62.1,77.15 94.09,177.83 95.97,302.03zm-183.47 143.96l-101.62 5.65c-86.56,0 -159.95,-25.88 -220.17,-77.63 -60.22,-51.75 -90.32,-108.67 -90.32,-170.77 0,-62.1 10.35,-115.73 31.04,-160.9 -80.91,63.98 -121.37,190.07 -121.37,378.25 0,90.32 18.82,176.41 56.45,258.27 37.64,81.86 96.91,122.79 177.83,122.79 80.92,0 143.96,-34.34 189.12,-103.03 45.17,-68.69 71.51,-152.9 79.04,-252.63zm-175.01 -468.57c-30.11,0 -53.63,13.65 -70.56,40.93 -16.94,27.28 -25.41,56.93 -25.41,88.91 0,69.63 23.99,126.09 71.98,169.37 47.99,43.28 103.97,64.92 167.95,64.92l33.87 0c-3.76,-92.21 -19.29,-175.95 -46.57,-251.22 -27.29,-75.27 -71.04,-112.91 -131.26,-112.91zm748.02 200.41l155.25 -16.93c15.05,0 28.22,8.46 39.52,25.4 11.28,16.94 16.93,34.81 16.93,53.63 0,18.82 -6.12,82.8 -18.35,191.95 -12.23,109.14 -18.35,195.23 -18.35,258.27 0,63.04 5.65,94.56 16.94,94.56 31.99,-1.88 76.21,-41.86 132.67,-119.96 56.45,-78.1 112.44,-178.3 167.95,-300.62 55.51,-122.32 89.39,-183.48 101.62,-183.48 12.23,0 18.34,7.53 18.34,22.59 0,52.69 -27.28,136.43 -81.85,251.22 -148.67,316.14 -273.81,474.21 -375.42,474.21 -73.4,0 -128.91,-15.05 -166.54,-45.16 -13.17,-13.18 -19.76,-95.03 -19.76,-245.57 0,-150.55 15.99,-279.46 47.98,-386.72 -109.14,0 -185.35,-34.81 -228.63,-104.44 -22.59,-35.75 -33.88,-76.21 -33.88,-121.37 0,-45.17 9.41,-84.69 28.23,-118.56 18.82,-33.87 45.63,-50.81 80.45,-50.81 34.81,0 66.8,18.35 95.97,55.05 29.17,36.69 43.75,77.62 43.75,122.79 0,45.16 -13.17,90.32 -39.52,135.48 7.53,5.65 19.76,8.47 36.7,8.47zm1106.5 276.63c-148.67,316.14 -274.27,474.21 -376.83,474.21 -102.56,0 -162.78,-12.23 -180.66,-36.69 -17.87,-24.47 -26.81,-105.38 -26.81,-242.76 0,-137.37 13.17,-335.9 39.51,-595.59 -94.08,-18.81 -143.95,-57.39 -149.6,-115.73 0,-30.11 19.76,-45.16 59.28,-45.16 39.52,0 74.33,7.52 104.44,22.58 16.93,-135.49 36.69,-272.86 59.28,-412.11 5.64,-35.76 23.52,-69.63 53.63,-101.62 30.11,-31.99 59.27,-47.99 87.5,-47.99 24.46,0 36.7,38.58 36.7,115.73 0,35.76 -13.18,200.42 -39.52,493.98 50.81,-9.41 106.79,-28.23 167.95,-56.46 61.16,-28.22 97.38,-42.34 108.67,-42.34 33.88,0 50.81,10.35 50.81,31.05 1.88,18.82 -32.93,44.7 -104.44,77.63 -71.51,32.93 -148.66,57.86 -231.46,74.8 -22.58,274.74 -33.87,482.68 -33.87,623.81 0,75.28 11.29,112.91 33.87,112.91 33.87,-1.88 79.04,-41.4 135.49,-118.55 56.45,-77.15 112.44,-177.36 167.95,-300.62 55.51,-123.26 89.39,-184.89 101.62,-184.89 12.23,0 18.35,7.53 18.35,22.59 0,52.69 -27.29,136.43 -81.86,251.22zm567.36 -581.48c-30.1,191.95 -71.98,378.24 -125.61,558.9 -53.63,180.65 -112.43,313.32 -176.42,398 -63.98,84.68 -141.13,127.02 -231.46,127.02 -65.86,0 -98.79,-25.41 -98.79,-76.22 0,-41.39 14.11,-70.56 42.34,-87.5 28.22,-16.93 61.63,-29.64 100.2,-38.11 38.58,-8.46 63.52,-18.34 74.81,-29.63 69.62,-73.39 134.07,-204.65 193.35,-393.77 59.28,-189.12 102.09,-381.54 128.43,-577.25 -80.92,-84.67 -121.37,-153.36 -121.37,-206.05 0,-52.69 15.05,-113.38 45.16,-182.06 30.11,-68.69 65.86,-103.03 107.26,-103.03 24.47,0 46.11,30.11 64.92,90.32 18.82,60.22 28.23,135.49 28.23,225.82 97.86,124.2 174.07,231.46 228.64,321.79 58.34,-191.94 138.31,-353.31 239.93,-484.09 101.62,-130.79 218.29,-196.19 350.02,-196.19 47.04,0 84.68,16.94 112.9,50.81 28.23,33.88 42.34,71.51 42.34,112.91 0,41.4 -7.99,78.57 -23.99,111.5 -15.99,32.93 -37.17,49.39 -63.51,49.39 -26.34,0 -39.52,-13.16 -39.52,-39.51 0,-26.35 -8,-46.58 -23.99,-60.69 -16,-14.11 -36.22,-21.17 -60.69,-21.17 -77.15,0 -149.6,40.46 -217.35,121.37 -95.97,114.8 -175.95,278.51 -239.92,491.16 124.19,267.21 186.29,483.62 186.29,649.22 0,67.74 -15.05,127.49 -45.16,179.24 -30.11,51.75 -74.33,77.63 -132.67,77.63 -124.2,0 -186.29,-105.39 -186.29,-316.15 0,-148.66 11.28,-289.8 33.87,-423.4 -56.46,-120.44 -120.44,-230.53 -191.95,-330.26zm259.69 516.56c-9.41,67.74 -14.11,137.37 -14.11,208.88 0,71.5 4.7,127.02 14.11,166.54 9.41,39.51 19.76,59.27 31.05,59.27 22.58,0 33.87,-38.57 33.87,-115.73 0,-77.15 -21.64,-183.48 -64.92,-318.96zm855.28 539.13c-105.38,0 -189.12,-39.99 -251.22,-119.96 -62.1,-79.98 -93.15,-170.77 -93.15,-272.4 0,-205.11 43.28,-360.36 129.85,-465.74 86.56,-105.38 198.52,-158.07 335.9,-158.07 63.98,0 116.67,17.41 158.07,52.22 41.4,34.81 62.1,82.33 62.1,142.54 0,112.91 -47.52,207.47 -142.55,283.68 -95.03,76.22 -211.23,116.21 -348.61,119.97 7.53,73.39 32.47,136.9 74.81,190.54 42.34,53.62 91.73,80.44 148.19,80.44 56.45,0 107.26,-13.17 152.42,-39.52 45.17,-26.34 86.57,-63.98 124.21,-112.9 79.03,-103.51 146.78,-221.12 203.23,-352.84 15.06,-33.87 26.82,-58.34 35.28,-73.39 8.47,-15.06 17.88,-22.59 28.23,-22.59 10.35,0 15.52,7.53 15.52,22.59 0,94.08 -57.39,235.22 -172.18,423.4 -124.2,201.35 -277.56,302.03 -460.1,302.03zm-149.61 -485.5c111.03,-18.82 192.42,-54.58 244.17,-107.27 51.75,-52.69 77.63,-121.37 77.63,-206.06 0,-84.67 -27.29,-127.02 -81.86,-127.02 -65.87,0 -121.38,45.64 -166.54,136.91 -45.17,91.26 -69.63,192.41 -73.4,303.44zm1806.54 -112.91c79.03,0 152.42,-33.88 220.17,-101.62 33.87,-33.87 56.92,-50.81 69.16,-50.81 12.23,0 18.34,9.41 18.34,28.23 0,18.82 -12.23,41.4 -36.69,67.75 -99.74,111.02 -224.88,166.53 -375.42,166.53 -30.11,139.26 -77.16,255.46 -141.14,348.61 -63.98,93.15 -144.9,139.72 -242.75,139.72 -97.85,0 -168.42,-57.4 -211.7,-172.18 -77.16,114.78 -157.14,172.18 -239.93,172.18 -156.19,0 -234.29,-150.54 -234.29,-451.63 0,-208.88 20.7,-350.96 62.1,-426.23 7.53,-13.17 35.75,-34.81 84.68,-64.92 48.93,-30.11 82.8,-45.17 101.62,-45.17 28.22,0 42.34,16.94 42.34,50.81 -3.76,88.45 -30.11,192.89 -79.03,313.32 -11.3,22.58 -16.94,76.69 -16.94,162.31 0,85.62 9.88,160.89 29.64,225.82 19.76,64.92 48.45,97.38 86.09,97.38 37.64,0 83.74,-45.16 138.31,-135.49 -9.4,-47.04 -14.11,-97.38 -14.11,-151.01 0,-53.64 5.65,-111.03 16.93,-172.19 11.29,-61.16 33.88,-122.79 67.75,-184.89 33.87,-62.1 74.33,-93.15 121.38,-93.15 15.05,0 25.87,4.71 32.46,14.12 6.58,9.4 9.88,31.99 9.88,67.74 0,95.97 -25.41,215.47 -76.21,358.48 7.52,82.8 26.81,152.9 57.86,210.3 31.05,57.39 65.39,86.09 103.03,86.09 54.57,0 100.67,-35.29 138.31,-105.85 37.64,-70.57 66.81,-156.66 87.5,-258.28 -69.62,-18.82 -123.26,-54.57 -160.89,-107.26 -37.63,-52.69 -56.45,-113.38 -56.45,-182.07 0,-68.68 16.46,-127.96 49.39,-177.83 32.94,-49.87 81.39,-74.8 145.37,-74.8 86.56,0 129.85,93.15 129.85,279.45 0,48.93 -2.83,99.73 -8.47,152.42 28.23,9.41 55.51,14.12 81.86,14.12zm-223 -338.73c-16.93,0 -25.4,31.99 -25.4,95.98 0,63.98 29.17,123.25 87.51,177.83 1.88,-9.41 2.82,-23.53 2.82,-42.34 0,-154.31 -21.64,-231.47 -64.93,-231.47zm779.07 59.28l5.65 -42.34c0,-33.87 -19.29,-50.81 -57.87,-50.81 -38.58,0 -75.74,24.94 -111.5,74.8 -35.75,49.87 -53.63,90.8 -53.63,122.79 0,31.99 1.89,57.4 5.65,76.21 3.76,18.82 8,34.35 12.7,46.58 4.71,12.23 12.71,26.81 23.99,43.75 11.29,16.94 19.76,29.17 25.41,36.69l31.05 39.52c13.17,18.82 22.58,31.05 28.22,36.7 97.86,-80.92 214.53,-171.25 350.02,-270.98 7.53,-5.65 16,-8.47 25.4,-8.47 18.82,0 28.23,10.35 28.23,31.05 0,20.7 -8.47,36.7 -25.4,47.99 -120.44,77.15 -234.29,160.89 -341.55,251.22 41.4,60.21 62.1,126.08 62.1,197.58 0,71.51 -27.28,132.68 -81.86,183.48 -54.57,50.81 -124.2,76.22 -208.88,76.22 -84.68,0 -127.02,-40.46 -127.02,-121.38 0,-58.34 62.1,-147.72 186.3,-268.16 -9.41,-11.29 -26.35,-29.64 -50.81,-55.04 -24.46,-25.41 -42.81,-45.63 -55.04,-60.69 -12.23,-15.05 -26.82,-34.81 -43.75,-59.28 -30.11,-47.04 -45.17,-97.85 -45.17,-152.42 0,-111.03 35.76,-200.89 107.26,-269.57 71.51,-68.69 147.72,-103.03 228.64,-103.03 50.81,0 90.33,13.64 118.56,40.93 28.22,27.29 42.34,55.04 42.34,83.27 0,63.98 -15.06,95.97 -45.17,95.97 -22.58,0 -33.87,-7.52 -33.87,-22.58zm-180.65 556.07c-75.27,75.27 -112.91,135.97 -112.91,182.07 0,46.1 23.52,69.15 70.57,69.15 28.23,0 51.75,-11.29 70.57,-33.87 41.39,-56.45 31.99,-128.9 -28.23,-217.35z"/>
 </g>
</svg>
