<?xml version="1.0" encoding="UTF-8"?>
<!DOCTYPE svg PUBLIC "-//W3C//DTD SVG 1.1//EN" "http://www.w3.org/Graphics/SVG/1.1/DTD/svg11.dtd">
<!-- Creator: CorelDRAW -->
<svg xmlns="http://www.w3.org/2000/svg" xml:space="preserve" width="5906px" height="5906px" version="1.1" style="shape-rendering:geometricPrecision; text-rendering:geometricPrecision; image-rendering:optimizeQuality; fill-rule:evenodd; clip-rule:evenodd"
viewBox="0 0 5906 5906"
 xmlns:xlink="http://www.w3.org/1999/xlink"
 xmlns:xodm="http://www.corel.com/coreldraw/odm/2003">
 <defs>
  <style type="text/css">
   <![CDATA[
    .fil0 {fill:#E31E24;fill-rule:nonzero}
   ]]>
  </style>
 </defs>
 <g id="Слой_x0020_1">
  <metadata id="CorelCorpID_0Corel-Layer"/>
  <g id="_1745508020352">
   <g>
    <g>
     <path class="fil0" d="M4434.98 396.31c-452.4,-264.06 -946.52,-396.07 -1482.23,-396.07 -535.79,0 -1029.89,132.01 -1482.3,396.07 -452.42,264.07 -810.65,622.32 -1074.65,1074.69 -264.05,452.48 -396.04,946.6 -396.04,1482.36 0,597.29 162.7,1139.46 488.29,1626.46 325.53,487.15 752.3,847.26 1280.41,1080.49 -10.3,-274.29 6.37,-501.11 49.99,-680.55l380.64 -1607.3c-64.09,-125.58 -96.11,-281.92 -96.11,-469.1 0,-217.88 55.11,-399.94 165.32,-545.99 110.16,-146.17 244.78,-219.26 403.73,-219.26 128.12,0 226.86,42.25 296.08,126.95 69.21,84.56 103.85,190.98 103.85,319.12 0,79.51 -14.8,176.32 -44.2,290.34 -29.52,114.09 -67.96,246.08 -115.33,396.07 -47.43,149.92 -81.38,269.75 -101.92,359.5 -35.95,156.34 -6.43,290.27 88.43,401.81 94.79,111.53 220.44,167.25 376.83,167.25 274.3,0 499.23,-152.47 674.84,-457.54 175.58,-305.07 263.37,-675.48 263.37,-1111.32 0,-335.77 -108.27,-608.84 -324.89,-819.04 -216.62,-210.14 -518.51,-315.3 -905.5,-315.3 -433.26,0 -783.82,139.12 -1051.62,417.16 -267.86,278.18 -401.8,610.83 -401.8,997.79 0,230.73 65.41,424.33 196.09,580.69 43.57,51.29 57.67,106.35 42.31,165.26 -5.18,15.42 -15.4,53.86 -30.76,115.33 -15.35,61.49 -25.65,101.31 -30.77,119.21 -20.54,82.08 -69.21,107.73 -146.17,76.91 -197.39,-82.03 -347.37,-224.26 -449.85,-426.8 -102.54,-202.47 -153.78,-437.01 -153.78,-703.63 0,-171.75 27.52,-343.52 82.63,-515.28 55.11,-171.76 140.93,-337.71 257.64,-498 116.58,-160.09 256.32,-301.82 419.15,-424.84 162.76,-123.08 360.79,-221.69 594.07,-296.15 233.24,-74.28 484.5,-111.47 753.66,-111.47 363.98,0 690.83,80.76 980.47,242.22 289.63,161.52 510.76,370.49 663.29,626.81 152.46,256.33 228.79,530.56 228.79,822.91 0,384.52 -66.7,730.6 -199.95,1038.24 -133.3,307.64 -321.72,549.22 -565.26,724.8 -243.59,175.56 -520.43,263.38 -830.55,263.38 -156.39,0 -302.5,-36.51 -438.36,-109.61 -135.93,-73.08 -229.48,-159.58 -280.72,-259.57 -115.34,453.67 -184.55,724.25 -207.63,811.31 -48.75,182.06 -148.73,392.19 -299.95,630.61 274.29,82.03 553.7,123.01 838.23,123.01 535.73,0 1029.84,-131.99 1482.24,-395.99 452.4,-264.08 810.64,-622.32 1074.71,-1074.81 263.99,-452.44 396.06,-946.5 396.06,-1482.33 0,-535.81 -132.07,-1029.85 -396.06,-1482.35 -264.02,-452.13 -622.32,-810.38 -1074.72,-1074.45z"/>
    </g>
   </g>
  </g>
 </g>
</svg>
