<?xml version="1.0" encoding="UTF-8"?>
<!DOCTYPE svg PUBLIC "-//W3C//DTD SVG 1.1//EN" "http://www.w3.org/Graphics/SVG/1.1/DTD/svg11.dtd">
<!-- Creator: CorelDRAW -->
<svg xmlns="http://www.w3.org/2000/svg" xml:space="preserve" width="5906px" height="5906px" version="1.1" style="shape-rendering:geometricPrecision; text-rendering:geometricPrecision; image-rendering:optimizeQuality; fill-rule:evenodd; clip-rule:evenodd"
viewBox="0 0 5906 5906"
 xmlns:xlink="http://www.w3.org/1999/xlink"
 xmlns:xodm="http://www.corel.com/coreldraw/odm/2003">
 <defs>
  <style type="text/css">
   <![CDATA[
    .fil0 {fill:#E31E24;fill-rule:nonzero}
   ]]>
  </style>
 </defs>
 <g id="Слой_x0020_1">
  <metadata id="CorelCorpID_0Corel-Layer"/>
  <path class="fil0" d="M2952.76 0.24c-1631.08,0 -2953,1321.94 -2953,2953 0,1631.07 1321.93,2953 2953,2953 1631.06,0 2953,-1321.93 2953,-2953 0,-1631.06 -1321.93,-2953 -2953,-2953zm-806.31 4310.69c-71.52,71.52 -169.57,114.2 -278,114.2 -108.43,0 -205.33,-43.83 -276.84,-114.2 -71.52,-71.52 -115.36,-168.41 -115.36,-275.69 0,-108.43 43.84,-205.32 115.36,-276.84 71.51,-71.52 168.41,-115.35 276.84,-115.35 108.43,0 206.48,43.83 276.84,115.35 71.52,71.52 115.36,168.41 115.36,276.84 0,108.43 -43.84,205.33 -114.2,275.69zm711.72 118.82c-1.16,-370.28 -144.19,-718.64 -404.89,-979.34 -260.69,-260.69 -609.05,-406.04 -977.03,-406.04l0 -564.07c537.54,0 1023.17,219.17 1376.15,572.15 352.98,352.97 570.99,839.76 572.14,1377.29l-566.37 0.01zm1005.86 0c-1.15,-1317.32 -1070.46,-2388.94 -2386.62,-2388.94l0 -564.07c814.38,0 1551.48,331.06 2085.56,866.29 534.08,535.24 865.14,1272.33 866.29,2086.71l-565.23 0.01z"/>
 </g>
</svg>
