<?xml version="1.0" encoding="UTF-8"?>
<!DOCTYPE svg PUBLIC "-//W3C//DTD SVG 1.1//EN" "http://www.w3.org/Graphics/SVG/1.1/DTD/svg11.dtd">
<!-- Creator: CorelDRAW -->
<svg xmlns="http://www.w3.org/2000/svg" xml:space="preserve" width="5906px" height="5906px" version="1.1" style="shape-rendering:geometricPrecision; text-rendering:geometricPrecision; image-rendering:optimizeQuality; fill-rule:evenodd; clip-rule:evenodd"
viewBox="0 0 5906 5906"
 xmlns:xlink="http://www.w3.org/1999/xlink"
 xmlns:xodm="http://www.corel.com/coreldraw/odm/2003">
 <defs>
  <style type="text/css">
   <![CDATA[
    .fil0 {fill:#E31E24;fill-rule:nonzero}
   ]]>
  </style>
 </defs>
 <g id="Слой_x0020_1">
  <metadata id="CorelCorpID_0Corel-Layer"/>
  <g id="_1745479009040">
   <g>
    <path class="fil0" d="M2952.76 0.24c-1630.9,0 -2953,1322.11 -2953,2953 0,1630.9 1322.1,2953 2953,2953 1630.89,0 2953,-1322.1 2953,-2953 0,-1630.89 -1322.11,-2953 -2953,-2953zm56.82 2507.64c0.97,0.05 1.89,0.25 2.88,0.29 -10.09,-43.28 -15.32,-88.41 -15.32,-134.75 0,-326.53 264.75,-591.27 591.32,-591.27 170.05,0 323.71,71.8 431.58,186.73 110.74,-21.8 215.52,-59.68 312.93,-109.85 20.55,-9.97 41.14,-19.87 61.37,-30.85 -35.06,107.67 -100.86,200.85 -186.19,271.45 -23.12,18.18 -46.86,35.74 -72.97,50.11 1.78,-0.21 3.51,-0.6 5.27,-0.82 -1.73,1.07 -3.17,2.54 -4.94,3.6 96.92,-11.59 189.86,-35.19 278.13,-68.54 19.78,-6.83 39.54,-13.74 59.14,-21.37 -78.92,117.19 -178.25,220.27 -292.7,302.91 1.13,25.34 1.7,50.82 1.7,76.49 0,781.34 -594.73,1682.31 -1682.33,1682.31 -333.91,0 -644.71,-97.87 -906.39,-265.63 46.26,5.45 93.35,8.25 141.07,8.25 220.73,0 426.96,-60.78 604.24,-165.42 44.65,-25.72 88.34,-53.51 130.04,-84.95 -1.13,-0.03 -2.16,-0.3 -3.29,-0.33 1.09,-0.84 2.26,-1.57 3.34,-2.41 -224.04,-4.13 -417.39,-133.11 -514.17,-320.06 -14.42,-28.72 -26.76,-58.79 -36.5,-90.34 35.6,6.69 72.05,10.36 109.59,10.36 39.11,0 76.89,-5.03 113.86,-12.26 13.81,-1.94 27.76,-3.55 41.36,-5.79 -1.79,-0.37 -3.37,-1.15 -5.17,-1.54 1.87,-0.48 3.87,-0.64 5.72,-1.15 -270.49,-54.32 -474.32,-293.31 -474.32,-579.78 0,-2.26 0.03,-4.46 0.05,-6.69l0.28 -0.63c63.68,35.34 134.88,58.73 210.28,68.52 18.56,3.1 37.16,5.95 55.74,7.57 -1.27,-0.85 -2.36,-1.89 -3.62,-2.74 1.75,0.07 3.43,0.42 5.16,0.47 -158.66,-106.02 -263.04,-287.03 -263.04,-492.16 0,-93.92 22.93,-182.1 61.91,-260.96 6.22,-11.86 11.75,-23.97 18.89,-35.46 261.97,320.93 640.38,541.82 1070.47,601.56 47.99,6.98 96.11,13.2 144.8,16.01 -0.08,-0.28 -0.1,-0.59 -0.17,-0.88z"/>
   </g>
  </g>
 </g>
</svg>
